<svg width="315" height="59" viewBox="0 0 315 59" fill="none" xmlns="http://www.w3.org/2000/svg">
<g clip-path="url(#clip0)">
<path fill-rule="evenodd" clip-rule="evenodd" d="M0.5 31C0.5 38.5942 3.57749 45.4696 8.55355 50.4457C13.5304 55.4225 20.4058 58.5 28 58.5C35.5942 58.5 42.4696 55.4225 47.4457 50.4457C52.4218 45.4696 55.5 38.5942 55.5 31C55.5 23.4058 52.4218 16.5304 47.4457 11.5543C42.4696 6.57825 35.5942 3.5 28 3.5C20.4058 3.5 13.5304 6.57825 8.55355 11.5543C3.57749 16.5304 0.5 23.4058 0.5 31V31ZM28 32.8017L27.1684 31.3609L26.3368 29.9209L27.1684 28.4802L28 27.0402L28.8316 25.5994L29.6632 24.1587L28 21.2779L26.3368 24.1587L25.5052 25.5994L24.6728 27.0402L23.8419 28.4802L23.0103 29.9209L22.178 31.3609L21.3471 32.8017L20.5147 34.2417L19.6831 35.6825L18.8515 37.1232L18.0199 38.5632L17.1883 40.004H18.8515H20.5147L21.3471 38.5632L22.178 37.1232L23.0103 35.6825L23.8419 34.2417L24.6728 32.8017L25.5052 34.2417L26.3368 35.6825L25.5052 37.1232L24.6728 38.5632L23.8419 40.004L23.0103 41.4447L22.178 42.8847H20.5147H18.8515H17.1883H15.525H13.8618H12.1986L13.0302 41.4447L13.8618 40.004L14.6934 38.5632L15.525 37.1232L16.3567 35.6825L17.1883 34.2417L18.0199 32.8017L18.8515 31.3609L19.6831 29.9209L20.5147 28.4802L21.3471 27.0402L22.178 25.5994L23.0103 24.1587L24.6728 21.2779L26.3368 18.3972L28 15.5164L29.6632 18.3972L31.3265 21.2779L32.9897 24.1587L32.1581 25.5994L31.3265 27.0402L30.4948 28.4802L29.6632 29.9209L28.8316 31.3609L28 32.8017ZM43.8014 42.8847H38.811L39.6426 41.4447L38.811 40.004L37.9801 38.5632L37.1477 40.004L36.3169 41.4447L35.4853 42.8847H33.8213H32.1581H30.4948H28.8316H27.1684H25.5052L26.3368 41.4447L27.1684 40.004L28 38.5632L28.8316 37.1232L29.6632 35.6825L30.4948 34.2417L31.3265 32.8017L32.1581 31.3609L32.9897 29.9209L33.8213 28.4802L34.6529 27.0402L35.4853 28.4802L36.3169 29.9209L35.4853 31.3609L34.6529 32.8017L33.8213 34.2417L32.9897 35.6825L32.1581 37.1232L31.3265 38.5632L30.4948 40.004H32.1581H33.8213L34.6529 38.5632L35.4853 37.1232L36.3169 35.6825L37.1477 34.2417L37.9801 32.8017L38.811 34.2417L39.6426 35.6825L40.475 37.1232L41.3066 38.5632L42.1382 40.004L42.9698 41.4447L43.8014 42.8847" fill="#0057FF"/>
<path d="M73.866 20.886V19.5H79.326V20.886H73.866ZM71.752 23L75.742 13.928H77.478L81.51 23H79.746L76.26 14.81H76.96L73.488 23H71.752ZM86.472 21.88H85.912L88.334 16.028H90.056L86.948 23H85.45L82.384 16.028H84.12L86.472 21.88ZM95.0187 23.154C94.3747 23.154 93.7867 23 93.2547 22.692C92.7227 22.384 92.298 21.9593 91.9807 21.418C91.6727 20.8673 91.5187 20.2373 91.5187 19.528C91.5187 18.8 91.6774 18.1653 91.9947 17.624C92.312 17.0733 92.7414 16.644 93.2827 16.336C93.8334 16.028 94.4494 15.874 95.1307 15.874C95.8867 15.874 96.484 16.0373 96.9227 16.364C97.3614 16.6907 97.674 17.1293 97.8607 17.68C98.0567 18.2307 98.1547 18.8467 98.1547 19.528C98.1547 19.92 98.0987 20.326 97.9867 20.746C97.8747 21.166 97.6974 21.558 97.4547 21.922C97.212 22.286 96.89 22.5847 96.4887 22.818C96.0874 23.042 95.5974 23.154 95.0187 23.154ZM95.5087 21.866C96.0314 21.866 96.4794 21.7633 96.8527 21.558C97.226 21.3527 97.506 21.0773 97.6927 20.732C97.8887 20.3773 97.9867 19.976 97.9867 19.528C97.9867 19.0333 97.8887 18.6133 97.6927 18.268C97.4967 17.9133 97.212 17.6427 96.8387 17.456C96.4747 17.2693 96.0314 17.176 95.5087 17.176C94.7527 17.176 94.1694 17.3953 93.7587 17.834C93.348 18.2633 93.1427 18.828 93.1427 19.528C93.1427 19.9853 93.2407 20.3913 93.4367 20.746C93.642 21.0913 93.922 21.3667 94.2767 21.572C94.6314 21.768 95.042 21.866 95.5087 21.866ZM97.9867 16.028H99.5687V23H98.0987C98.0987 23 98.0894 22.9113 98.0707 22.734C98.052 22.5567 98.0334 22.3373 98.0147 22.076C97.996 21.8147 97.9867 21.5673 97.9867 21.334V16.028ZM105.405 23.154C104.752 23.154 104.159 23 103.627 22.692C103.095 22.384 102.675 21.9593 102.367 21.418C102.059 20.8673 101.905 20.2373 101.905 19.528C101.905 18.8 102.054 18.1653 102.353 17.624C102.661 17.0733 103.076 16.644 103.599 16.336C104.131 16.028 104.733 15.874 105.405 15.874C105.993 15.874 106.488 15.972 106.889 16.168C107.3 16.3547 107.622 16.616 107.855 16.952C108.098 17.2787 108.27 17.6613 108.373 18.1C108.485 18.5387 108.541 19.0147 108.541 19.528C108.541 19.92 108.485 20.326 108.373 20.746C108.261 21.166 108.084 21.558 107.841 21.922C107.598 22.286 107.276 22.5847 106.875 22.818C106.474 23.042 105.984 23.154 105.405 23.154ZM105.895 21.866C106.418 21.866 106.866 21.7633 107.239 21.558C107.612 21.3527 107.892 21.0773 108.079 20.732C108.275 20.3773 108.373 19.976 108.373 19.528C108.373 19.0333 108.275 18.6133 108.079 18.268C107.883 17.9133 107.598 17.6427 107.225 17.456C106.861 17.26 106.418 17.162 105.895 17.162C105.139 17.162 104.556 17.3813 104.145 17.82C103.734 18.2587 103.529 18.828 103.529 19.528C103.529 19.9853 103.627 20.3913 103.823 20.746C104.028 21.0913 104.308 21.3667 104.663 21.572C105.018 21.768 105.428 21.866 105.895 21.866ZM108.373 13.228H109.955V23H108.485C108.466 22.7853 108.443 22.5193 108.415 22.202C108.387 21.8847 108.373 21.5953 108.373 21.334V13.228ZM116.065 23.154C115.421 23.154 114.833 23 114.301 22.692C113.769 22.384 113.344 21.9593 113.027 21.418C112.719 20.8673 112.565 20.2373 112.565 19.528C112.565 18.8 112.723 18.1653 113.041 17.624C113.358 17.0733 113.787 16.644 114.329 16.336C114.879 16.028 115.495 15.874 116.177 15.874C116.933 15.874 117.53 16.0373 117.969 16.364C118.407 16.6907 118.72 17.1293 118.907 17.68C119.103 18.2307 119.201 18.8467 119.201 19.528C119.201 19.92 119.145 20.326 119.033 20.746C118.921 21.166 118.743 21.558 118.501 21.922C118.258 22.286 117.936 22.5847 117.535 22.818C117.133 23.042 116.643 23.154 116.065 23.154ZM116.555 21.866C117.077 21.866 117.525 21.7633 117.899 21.558C118.272 21.3527 118.552 21.0773 118.739 20.732C118.935 20.3773 119.033 19.976 119.033 19.528C119.033 19.0333 118.935 18.6133 118.739 18.268C118.543 17.9133 118.258 17.6427 117.885 17.456C117.521 17.2693 117.077 17.176 116.555 17.176C115.799 17.176 115.215 17.3953 114.805 17.834C114.394 18.2633 114.189 18.828 114.189 19.528C114.189 19.9853 114.287 20.3913 114.483 20.746C114.688 21.0913 114.968 21.3667 115.323 21.572C115.677 21.768 116.088 21.866 116.555 21.866ZM119.033 16.028H120.615V23H119.145C119.145 23 119.135 22.9113 119.117 22.734C119.098 22.5567 119.079 22.3373 119.061 22.076C119.042 21.8147 119.033 21.5673 119.033 21.334V16.028Z" fill="black"/>
<path d="M80.675 31.825C82.4917 31.825 84.0083 32.0417 85.225 32.475C86.4417 32.9083 87.4083 33.5 88.125 34.25C88.8583 34.9833 89.375 35.8333 89.675 36.8C89.9917 37.7667 90.15 38.7833 90.15 39.85C90.15 40.9167 89.975 41.9417 89.625 42.925C89.2917 43.9083 88.75 44.7833 88 45.55C87.2667 46.3 86.2917 46.9 85.075 47.35C83.875 47.7833 82.4083 48 80.675 48H71.425V31.825H80.675ZM74.75 45.15H80.6C81.8 45.15 82.7917 45.0083 83.575 44.725C84.375 44.425 85.0083 44.025 85.475 43.525C85.9417 43.025 86.275 42.4583 86.475 41.825C86.675 41.1917 86.775 40.5333 86.775 39.85C86.775 39.1667 86.675 38.5167 86.475 37.9C86.275 37.2833 85.9417 36.7333 85.475 36.25C85.0083 35.7667 84.375 35.3833 83.575 35.1C82.7917 34.8167 81.8 34.675 80.6 34.675H74.75V45.15ZM93.8727 31.825H97.1977V48H93.8727V31.825ZM110.803 48.325C109.303 48.325 107.945 48.15 106.728 47.8C105.528 47.45 104.486 46.925 103.603 46.225C102.736 45.525 102.07 44.6583 101.603 43.625C101.136 42.5917 100.903 41.4 100.903 40.05C100.903 38.6833 101.145 37.475 101.628 36.425C102.128 35.3583 102.828 34.4583 103.728 33.725C104.645 32.9917 105.728 32.4417 106.978 32.075C108.245 31.6917 109.645 31.5 111.178 31.5C112.995 31.5 114.561 31.7583 115.878 32.275C117.195 32.775 118.228 33.4833 118.978 34.4C119.745 35.3167 120.178 36.4083 120.278 37.675H117.078C116.861 37.0083 116.503 36.4333 116.003 35.95C115.52 35.45 114.878 35.0667 114.078 34.8C113.278 34.5167 112.311 34.375 111.178 34.375C109.728 34.375 108.486 34.6083 107.453 35.075C106.436 35.5417 105.661 36.2 105.128 37.05C104.595 37.9 104.328 38.9 104.328 40.05C104.328 41.1667 104.561 42.1333 105.028 42.95C105.495 43.75 106.211 44.3667 107.178 44.8C108.161 45.2333 109.411 45.45 110.928 45.45C112.095 45.45 113.12 45.3 114.003 45C114.903 44.6833 115.653 44.2667 116.253 43.75C116.853 43.2167 117.278 42.625 117.528 41.975L118.828 41.5C118.611 43.65 117.795 45.325 116.378 46.525C114.978 47.725 113.12 48.325 110.803 48.325ZM117.978 48C117.978 47.4833 118.011 46.8917 118.078 46.225C118.145 45.5417 118.228 44.8583 118.328 44.175C118.428 43.475 118.52 42.8333 118.603 42.25H111.203V40.125H120.853V48H117.978ZM124.83 31.825H128.155V48H124.83V31.825ZM131.035 31.825H148.085V34.6H131.035V31.825ZM137.91 34.25H141.235V48H137.91V34.25ZM152.002 44.475V41.7H162.702V44.475H152.002ZM147.977 48L155.577 31.825H159.177L166.852 48H163.227L156.577 33.425H158.177L151.577 48H147.977ZM172.528 31.825V45.225H183.278V48H169.203V31.825H172.528ZM194.922 44.475V41.7H205.622V44.475H194.922ZM190.897 48L198.497 31.825H202.097L209.772 48H206.147L199.497 33.425H201.097L194.497 48H190.897ZM220.593 48.325C219.093 48.325 217.735 48.15 216.518 47.8C215.318 47.45 214.276 46.925 213.393 46.225C212.526 45.525 211.86 44.6583 211.393 43.625C210.926 42.5917 210.693 41.4 210.693 40.05C210.693 38.6833 210.935 37.475 211.418 36.425C211.918 35.3583 212.618 34.4583 213.518 33.725C214.435 32.9917 215.518 32.4417 216.768 32.075C218.035 31.6917 219.435 31.5 220.968 31.5C222.785 31.5 224.351 31.7583 225.668 32.275C226.985 32.775 228.018 33.4833 228.768 34.4C229.535 35.3167 229.968 36.4083 230.068 37.675H226.868C226.651 37.0083 226.293 36.4333 225.793 35.95C225.31 35.45 224.668 35.0667 223.868 34.8C223.068 34.5167 222.101 34.375 220.968 34.375C219.518 34.375 218.276 34.6083 217.243 35.075C216.226 35.5417 215.451 36.2 214.918 37.05C214.385 37.9 214.118 38.9 214.118 40.05C214.118 41.1667 214.351 42.1333 214.818 42.95C215.285 43.75 216.001 44.3667 216.968 44.8C217.951 45.2333 219.201 45.45 220.718 45.45C221.885 45.45 222.91 45.3 223.793 45C224.693 44.6833 225.443 44.2667 226.043 43.75C226.643 43.2167 227.068 42.625 227.318 41.975L228.618 41.5C228.401 43.65 227.585 45.325 226.168 46.525C224.768 47.725 222.91 48.325 220.593 48.325ZM227.768 48C227.768 47.4833 227.801 46.8917 227.868 46.225C227.935 45.5417 228.018 44.8583 228.118 44.175C228.218 43.475 228.31 42.8333 228.393 42.25H220.993V40.125H230.643V48H227.768ZM237.47 41.25V45.225H249.945V48H234.145V31.825H249.92V34.6H237.47V38.625H247.67V41.25H237.47ZM269.759 44.7L268.709 45.125V31.825H272.034V48H268.709L255.634 35.225L256.684 34.8V48H253.359V31.825H256.684L269.759 44.7ZM294.768 42.175C294.618 43.475 294.159 44.5833 293.393 45.5C292.626 46.4167 291.584 47.1167 290.268 47.6C288.951 48.0833 287.384 48.325 285.568 48.325C284.051 48.325 282.659 48.15 281.393 47.8C280.143 47.45 279.059 46.925 278.143 46.225C277.243 45.525 276.543 44.6583 276.043 43.625C275.543 42.575 275.293 41.35 275.293 39.95C275.293 38.55 275.543 37.325 276.043 36.275C276.543 35.225 277.243 34.35 278.143 33.65C279.059 32.9333 280.143 32.4 281.393 32.05C282.659 31.6833 284.051 31.5 285.568 31.5C287.384 31.5 288.951 31.75 290.268 32.25C291.601 32.75 292.651 33.4667 293.418 34.4C294.184 35.3167 294.634 36.4333 294.768 37.75H291.468C291.251 37.05 290.884 36.45 290.368 35.95C289.868 35.4333 289.218 35.0417 288.418 34.775C287.618 34.5083 286.668 34.375 285.568 34.375C284.201 34.375 283.001 34.5917 281.968 35.025C280.934 35.4417 280.134 36.0667 279.568 36.9C279.001 37.7167 278.718 38.7333 278.718 39.95C278.718 41.15 279.001 42.1583 279.568 42.975C280.134 43.7917 280.934 44.4167 281.968 44.85C283.001 45.2667 284.201 45.475 285.568 45.475C286.668 45.475 287.609 45.3417 288.393 45.075C289.193 44.8083 289.843 44.425 290.343 43.925C290.859 43.425 291.234 42.8417 291.468 42.175H294.768ZM312.891 31.825L305.791 42.9V48H302.441V42.9L295.341 31.825H299.191L305.166 41.5H303.166L309.041 31.825H312.891Z" fill="black"/>
</g>
<defs>
<clipPath id="clip0">
<rect width="314" height="58" fill="white" transform="translate(0.5 0.5)"/>
</clipPath>
</defs>
</svg>
